<?xml version="1.0" encoding="utf-8"?>
<!-- Generator: Adobe Illustrator 17.1.0, SVG Export Plug-In . SVG Version: 6.00 Build 0)  -->
<!DOCTYPE svg PUBLIC "-//W3C//DTD SVG 1.1//EN" "http://www.w3.org/Graphics/SVG/1.1/DTD/svg11.dtd">
<svg version="1.1" id="Layer_1" xmlns="http://www.w3.org/2000/svg" xmlns:xlink="http://www.w3.org/1999/xlink" x="0px" y="0px"
	 viewBox="0 0 696 612" enable-background="new 0 0 696 612" xml:space="preserve">
<g>
	<g>
		<defs>
			<circle id="SVGID_1_" cx="340.7" cy="289.6" r="214.1"/>
		</defs>
		<clipPath id="SVGID_2_">
			<use xlink:href="#SVGID_1_"  overflow="visible"/>
		</clipPath>
		<g clip-path="url(#SVGID_2_)">
			<line fill="none" stroke="#231F20" stroke-width="6" stroke-miterlimit="10" x1="662.4" y1="268.1" x2="319.5" y2="-32.1"/>
			<line fill="none" stroke="#231F20" stroke-width="6" stroke-miterlimit="10" x1="653" y1="278.8" x2="310.1" y2="-21.4"/>
			<line fill="none" stroke="#231F20" stroke-width="6" stroke-miterlimit="10" x1="643.6" y1="289.6" x2="300.7" y2="-10.7"/>
			<line fill="none" stroke="#231F20" stroke-width="6" stroke-miterlimit="10" x1="634.2" y1="300.3" x2="291.3" y2="0.1"/>
			<line fill="none" stroke="#231F20" stroke-width="6" stroke-miterlimit="10" x1="624.8" y1="311" x2="281.9" y2="10.8"/>
			<line fill="none" stroke="#231F20" stroke-width="6" stroke-miterlimit="10" x1="615.4" y1="321.7" x2="272.6" y2="21.5"/>
			<line fill="none" stroke="#231F20" stroke-width="6" stroke-miterlimit="10" x1="606" y1="332.5" x2="263.2" y2="32.2"/>
			<line fill="none" stroke="#231F20" stroke-width="6" stroke-miterlimit="10" x1="596.6" y1="343.2" x2="253.8" y2="43"/>
			<line fill="none" stroke="#231F20" stroke-width="6" stroke-miterlimit="10" x1="587.2" y1="353.9" x2="244.4" y2="53.7"/>
			<line fill="none" stroke="#231F20" stroke-width="6" stroke-miterlimit="10" x1="577.8" y1="364.6" x2="235" y2="64.4"/>
			<line fill="none" stroke="#231F20" stroke-width="6" stroke-miterlimit="10" x1="568.4" y1="375.4" x2="225.6" y2="75.1"/>
			<line fill="none" stroke="#231F20" stroke-width="6" stroke-miterlimit="10" x1="559.1" y1="386.1" x2="216.2" y2="85.9"/>
			<line fill="none" stroke="#231F20" stroke-width="6" stroke-miterlimit="10" x1="549.7" y1="396.8" x2="206.8" y2="96.6"/>
			<line fill="none" stroke="#231F20" stroke-width="6" stroke-miterlimit="10" x1="540.3" y1="407.5" x2="197.4" y2="107.3"/>
			<line fill="none" stroke="#231F20" stroke-width="6" stroke-miterlimit="10" x1="530.9" y1="418.3" x2="188" y2="118"/>
			<line fill="none" stroke="#231F20" stroke-width="6" stroke-miterlimit="10" x1="521.5" y1="429" x2="178.6" y2="128.8"/>
			<line fill="none" stroke="#231F20" stroke-width="6" stroke-miterlimit="10" x1="512.1" y1="439.7" x2="169.3" y2="139.5"/>
			<line fill="none" stroke="#231F20" stroke-width="6" stroke-miterlimit="10" x1="502.7" y1="450.4" x2="159.9" y2="150.2"/>
			<line fill="none" stroke="#231F20" stroke-width="6" stroke-miterlimit="10" x1="493.3" y1="461.2" x2="150.5" y2="160.9"/>
			<line fill="none" stroke="#231F20" stroke-width="6" stroke-miterlimit="10" x1="483.9" y1="471.9" x2="141.1" y2="171.7"/>
			<line fill="none" stroke="#231F20" stroke-width="6" stroke-miterlimit="10" x1="474.5" y1="482.6" x2="131.7" y2="182.4"/>
			<line fill="none" stroke="#231F20" stroke-width="6" stroke-miterlimit="10" x1="465.1" y1="493.3" x2="122.3" y2="193.1"/>
			<line fill="none" stroke="#231F20" stroke-width="6" stroke-miterlimit="10" x1="455.8" y1="504.1" x2="112.9" y2="203.8"/>
			<line fill="none" stroke="#231F20" stroke-width="6" stroke-miterlimit="10" x1="446.4" y1="514.8" x2="103.5" y2="214.6"/>
			<line fill="none" stroke="#231F20" stroke-width="6" stroke-miterlimit="10" x1="437" y1="525.5" x2="94.1" y2="225.3"/>
			<line fill="none" stroke="#231F20" stroke-width="6" stroke-miterlimit="10" x1="427.6" y1="536.2" x2="84.7" y2="236"/>
			<line fill="none" stroke="#231F20" stroke-width="6" stroke-miterlimit="10" x1="418.2" y1="546.9" x2="75.3" y2="246.7"/>
			<line fill="none" stroke="#231F20" stroke-width="6" stroke-miterlimit="10" x1="408.8" y1="557.7" x2="65.9" y2="257.5"/>
			<line fill="none" stroke="#231F20" stroke-width="6" stroke-miterlimit="10" x1="399.4" y1="568.4" x2="56.6" y2="268.2"/>
			<line fill="none" stroke="#231F20" stroke-width="6" stroke-miterlimit="10" x1="390" y1="579.1" x2="47.2" y2="278.9"/>
			<line fill="none" stroke="#231F20" stroke-width="6" stroke-miterlimit="10" x1="380.6" y1="589.8" x2="37.8" y2="289.6"/>
			<line fill="none" stroke="#231F20" stroke-width="6" stroke-miterlimit="10" x1="371.2" y1="600.6" x2="28.4" y2="300.4"/>
			<line fill="none" stroke="#231F20" stroke-width="6" stroke-miterlimit="10" x1="361.8" y1="611.3" x2="19" y2="311.1"/>
		</g>
	</g>
	<path fill="#FFFFFF" d="M329.5,193.8c-9.1,0-17.9,0-27.3,0c0.8-5.9,1.5-11.4,2.2-17.2c9.1,0,18.1,0,27,0c1.6-7.2,2.7-14.2,4.6-20.9
		c11.1-39.4,35.6-65.8,75.7-76.4c17.4-4.6,35.3-5.3,52.8-1.1c16.8,4.1,30.7,12.6,35.1,30.7c3.8,15.8,1.7,30.6-11.2,42.2
		c-10,8.9-28.7,10.2-39.7,3.1c-10.1-6.5-14.3-18.8-11.1-32.1c3.1-12.8,11.3-20.6,23.9-24.1c1.1-0.3,2.2-0.7,4-1.2
		c-5.8-3.6-11.7-4.1-17.6-3.8c-17.8,0.8-27.9,11.6-34.3,27c-5,12.1-6.4,24.9-8.2,37.6c-0.9,6.2-1.7,12.3-2.6,19
		c14.9,0,29.4,0,44.3,0c-0.7,5.9-1.3,11.2-1.9,17c-14.7,0-29.5,0-44.6,0c-1.1,9-2.2,17.6-3.3,26.1c-2.1,17.1-4.2,34.2-6.3,51.3
		c-2,16.4-3.9,32.9-6,49.3c-3.2,25.1-4.9,50.5-12.3,75c-6.4,21.2-15.8,40.8-32.1,56.2c-14.5,13.7-31.8,21.3-51.5,24
		c-13.3,1.9-26.6,2-39.7-1c-15.7-3.6-29.2-10.7-35.4-26.8c-5.9-15.2-3.1-35.9,10.7-46.9c12.8-10.2,42-11.1,49.5,10.1
		c6.2,17.4-2,37.5-22.6,43.2c-1.3,0.4-2.6,0.7-4,1.1c8.9,6.7,25.5,5.7,35.2-2.1c9.7-7.8,14.7-18.5,17.1-30.2
		c2.9-13.9,4.7-28.1,6.6-42.2c2.3-16.7,4.2-33.4,6.3-50.1c2-16.4,4-32.9,6-49.3c2.1-17.1,4.2-34.2,6.3-51.4
		C326.6,218.2,328.1,206.2,329.5,193.8z"/>
	<path fill="#FFFFFF" d="M540.1,225.9c-10.4-6.2-26.6-3.1-34.6,6.1c-7.2,8.2-10.4,18.2-12.2,28.7c-1.7,9.6-2.8,19.3-4.1,29
		c0,0.3,0.1,0.6,0.2,1.4c11.8,0,23.7,0,35.8,0c-0.6,4.9-1.1,9.3-1.6,14c-12.1,0-24.1,0-36.4,0c-0.9,7.2-1.8,14.2-2.7,21.2
		c-1.7,14-3.4,28-5.1,42c-1.6,13.4-3.2,26.9-4.9,40.3c-2.6,20.7-4,41.5-10.1,61.6c-5.2,17.3-13,33.3-26.4,45.9
		c-11.8,11.1-25.9,17.2-41.8,19.4c-10.9,1.5-21.7,1.7-32.4-0.8c-12.9-2.9-23.8-8.7-29-21.8c-4.9-12.4-2.5-29.4,8.6-38.4
		c10.4-8.4,34.3-9.1,40.5,8.2c5.1,14.1-1.5,30.6-18.4,35.4c-1.1,0.3-2.1,0.6-3.3,0.9c4.9,4.4,18.3,5.1,26.2,0.1
		c7.5-4.8,12.2-11.8,14.5-20.1c2.6-9.7,4.6-19.6,6-29.6c2.3-15.7,4-31.5,5.9-47.2c1.9-15.4,3.7-30.8,5.6-46.3
		c2.1-17.2,4.3-34.4,6.4-51.5c0.8-6.3,1.5-12.5,2.3-19.2c-7.4,0-14.6,0-22.3,0c0.6-4.8,1.2-9.3,1.8-14c7.4,0,14.7,0,22.1,0
		c1.3-5.9,2.2-11.5,3.7-17c9-32.2,29-53.8,61.8-62.5c14.2-3.8,28.8-4.4,43.2-0.9c13.7,3.3,25.1,10.2,28.7,25
		c3.1,13,1.4,25.2-9.4,34.7c-8.1,7.1-23.2,8.1-32.2,2.4c-8.2-5.3-11.7-15.4-9.1-26.2c2.6-10.5,9.2-16.9,19.5-19.7
		C537.8,226.6,538.7,226.3,540.1,225.9z"/>
	<g>
		<path fill="#FFFFFF" d="M222.4,218.2c-6.9,0-13.7,0-20.6,0c0.4-4,0.8-7.8,1.2-11.5c0.2-2,1.5-2,2.9-2c7.1-0.1,14.2,0,21.3-0.5
			c14-0.9,28.1-2.3,42.1-3.1c3.3-0.2,6.7,1.5,9.9,2.5c0.4,0.1,0.6,1.4,0.5,2.2c-3.1,24.7-6.2,49.4-9.3,74
			c-2.2,17.2-4.3,34.4-6.3,51.7c-0.3,2.6-0.1,5.3,0.5,7.9c1.1,4.9,6.5,6.4,9.7,2.4c2.5-3,4.3-6.8,5.4-10.5
			c1.7-5.6,2.6-11.5,3.9-17.6c4.4,0,9.1,0,14.3,0c-0.7,4-1.1,7.9-2.2,11.6c-1.9,6.5-3.7,13-6.5,19.2c-5.5,12.4-16.2,17.9-29.1,19.5
			c-8.3,1-16.5,0.7-24.6-1.4c-14.4-3.7-22.8-14.3-24.5-29.3c-1.3-11.4,0.3-22.6,1.6-33.9c1.5-13.2,3.2-26.5,4.8-39.7
			c1.6-13.2,3.2-26.5,4.8-39.7C222.3,219.5,222.3,219,222.4,218.2z"/>
		<path fill="#FFFFFF" d="M257.4,126.4c9.4,0,17.3,2.2,23.5,9c8.4,9.4,8.2,26.3,0.2,36.1c-11.1,13.4-32.7,15-44.7,8.6
			c-9.8-5.2-13.8-14.6-13.4-24.7C223.6,137.5,239.4,126,257.4,126.4z"/>
	</g>
</g>
</svg>
