<?xml version="1.0" encoding="utf-8"?>
<!-- Generator: Adobe Illustrator 17.1.0, SVG Export Plug-In . SVG Version: 6.00 Build 0)  -->
<!DOCTYPE svg PUBLIC "-//W3C//DTD SVG 1.1//EN" "http://www.w3.org/Graphics/SVG/1.1/DTD/svg11.dtd">
<svg version="1.1" id="Layer_1" xmlns="http://www.w3.org/2000/svg" xmlns:xlink="http://www.w3.org/1999/xlink" x="0px" y="0px"
	 viewBox="0 0 596.1 596.1" enable-background="new 0 0 596.1 596.1" xml:space="preserve">
<g>
	<g>
		<defs>
			<circle id="SVGID_1_" cx="290.7" cy="281.6" r="214.1"/>
		</defs>
		<clipPath id="SVGID_2_">
			<use xlink:href="#SVGID_1_"  overflow="visible"/>
		</clipPath>
		<g clip-path="url(#SVGID_2_)">
			<line fill="none" stroke="#231F20" stroke-width="6" stroke-miterlimit="10" x1="612.4" y1="260.2" x2="269.6" y2="-40.1"/>
			<line fill="none" stroke="#231F20" stroke-width="6" stroke-miterlimit="10" x1="603" y1="270.9" x2="260.2" y2="-29.3"/>
			<line fill="none" stroke="#231F20" stroke-width="6" stroke-miterlimit="10" x1="593.6" y1="281.6" x2="250.8" y2="-18.6"/>
			<line fill="none" stroke="#231F20" stroke-width="6" stroke-miterlimit="10" x1="584.2" y1="292.3" x2="241.4" y2="-7.9"/>
			<line fill="none" stroke="#231F20" stroke-width="6" stroke-miterlimit="10" x1="574.8" y1="303.1" x2="232" y2="2.8"/>
			<line fill="none" stroke="#231F20" stroke-width="6" stroke-miterlimit="10" x1="565.5" y1="313.8" x2="222.6" y2="13.6"/>
			<line fill="none" stroke="#231F20" stroke-width="6" stroke-miterlimit="10" x1="556.1" y1="324.5" x2="213.2" y2="24.3"/>
			<line fill="none" stroke="#231F20" stroke-width="6" stroke-miterlimit="10" x1="546.7" y1="335.2" x2="203.8" y2="35"/>
			<line fill="none" stroke="#231F20" stroke-width="6" stroke-miterlimit="10" x1="537.3" y1="346" x2="194.4" y2="45.7"/>
			<line fill="none" stroke="#231F20" stroke-width="6" stroke-miterlimit="10" x1="527.9" y1="356.7" x2="185" y2="56.5"/>
			<line fill="none" stroke="#231F20" stroke-width="6" stroke-miterlimit="10" x1="518.5" y1="367.4" x2="175.7" y2="67.2"/>
			<line fill="none" stroke="#231F20" stroke-width="6" stroke-miterlimit="10" x1="509.1" y1="378.1" x2="166.3" y2="77.9"/>
			<line fill="none" stroke="#231F20" stroke-width="6" stroke-miterlimit="10" x1="499.7" y1="388.9" x2="156.9" y2="88.6"/>
			<line fill="none" stroke="#231F20" stroke-width="6" stroke-miterlimit="10" x1="490.3" y1="399.6" x2="147.5" y2="99.4"/>
			<line fill="none" stroke="#231F20" stroke-width="6" stroke-miterlimit="10" x1="480.9" y1="410.3" x2="138.1" y2="110.1"/>
			<line fill="none" stroke="#231F20" stroke-width="6" stroke-miterlimit="10" x1="471.5" y1="421" x2="128.7" y2="120.8"/>
			<line fill="none" stroke="#231F20" stroke-width="6" stroke-miterlimit="10" x1="462.2" y1="431.8" x2="119.3" y2="131.5"/>
			<line fill="none" stroke="#231F20" stroke-width="6" stroke-miterlimit="10" x1="452.8" y1="442.5" x2="109.9" y2="142.3"/>
			<line fill="none" stroke="#231F20" stroke-width="6" stroke-miterlimit="10" x1="443.4" y1="453.2" x2="100.5" y2="153"/>
			<line fill="none" stroke="#231F20" stroke-width="6" stroke-miterlimit="10" x1="434" y1="463.9" x2="91.1" y2="163.7"/>
			<line fill="none" stroke="#231F20" stroke-width="6" stroke-miterlimit="10" x1="424.6" y1="474.7" x2="81.7" y2="174.4"/>
			<line fill="none" stroke="#231F20" stroke-width="6" stroke-miterlimit="10" x1="415.2" y1="485.4" x2="72.4" y2="185.2"/>
			<line fill="none" stroke="#231F20" stroke-width="6" stroke-miterlimit="10" x1="405.8" y1="496.1" x2="63" y2="195.9"/>
			<line fill="none" stroke="#231F20" stroke-width="6" stroke-miterlimit="10" x1="396.4" y1="506.8" x2="53.6" y2="206.6"/>
			<line fill="none" stroke="#231F20" stroke-width="6" stroke-miterlimit="10" x1="387" y1="517.6" x2="44.2" y2="217.3"/>
			<line fill="none" stroke="#231F20" stroke-width="6" stroke-miterlimit="10" x1="377.6" y1="528.3" x2="34.8" y2="228.1"/>
			<line fill="none" stroke="#231F20" stroke-width="6" stroke-miterlimit="10" x1="368.2" y1="539" x2="25.4" y2="238.8"/>
			<line fill="none" stroke="#231F20" stroke-width="6" stroke-miterlimit="10" x1="358.9" y1="549.7" x2="16" y2="249.5"/>
			<line fill="none" stroke="#231F20" stroke-width="6" stroke-miterlimit="10" x1="349.5" y1="560.5" x2="6.6" y2="260.2"/>
			<line fill="none" stroke="#231F20" stroke-width="6" stroke-miterlimit="10" x1="340.1" y1="571.2" x2="-2.8" y2="271"/>
			<line fill="none" stroke="#231F20" stroke-width="6" stroke-miterlimit="10" x1="330.7" y1="581.9" x2="-12.2" y2="281.7"/>
			<line fill="none" stroke="#231F20" stroke-width="6" stroke-miterlimit="10" x1="321.3" y1="592.6" x2="-21.6" y2="292.4"/>
			<line fill="none" stroke="#231F20" stroke-width="6" stroke-miterlimit="10" x1="311.9" y1="603.4" x2="-31" y2="303.1"/>
		</g>
	</g>
	<path fill="#FFFFFF" d="M279.6,185.8c-9.1,0-17.9,0-27.3,0c0.8-5.9,1.5-11.4,2.2-17.2c9.1,0,18.1,0,27,0c1.6-7.2,2.7-14.2,4.6-20.9
		c11.1-39.4,35.6-65.8,75.7-76.4c17.4-4.6,35.3-5.3,52.8-1.1c16.8,4.1,30.7,12.6,35.1,30.7c3.8,15.8,1.7,30.6-11.2,42.2
		c-10,8.9-28.7,10.2-39.7,3.1c-10.1-6.5-14.3-18.8-11.1-32.1c3.1-12.8,11.3-20.6,23.9-24.1c1.1-0.3,2.2-0.7,4-1.2
		c-5.8-3.6-11.7-4.1-17.6-3.8c-17.8,0.8-27.9,11.6-34.3,27c-5,12.1-6.4,24.9-8.2,37.6c-0.9,6.2-1.7,12.3-2.6,19
		c14.9,0,29.4,0,44.3,0c-0.7,5.9-1.3,11.2-1.9,17c-14.7,0-29.5,0-44.6,0c-1.1,9-2.2,17.6-3.3,26.1c-2.1,17.1-4.2,34.2-6.3,51.3
		c-2,16.4-3.9,32.9-6,49.3c-3.2,25.1-4.9,50.5-12.3,75c-6.4,21.2-15.8,40.8-32.1,56.2c-14.5,13.7-31.8,21.3-51.5,24
		c-13.3,1.9-26.6,2-39.7-1c-15.7-3.6-29.2-10.7-35.4-26.8c-5.9-15.2-3.1-35.9,10.7-46.9c12.8-10.2,42-11.1,49.5,10.1
		c6.2,17.4-2,37.5-22.6,43.2c-1.3,0.4-2.6,0.7-4,1.1c8.9,6.7,25.5,5.7,35.2-2.1c9.7-7.8,14.7-18.5,17.1-30.2
		c2.9-13.9,4.7-28.1,6.6-42.2c2.3-16.7,4.2-33.4,6.3-50.1c2-16.4,4-32.9,6-49.3c2.1-17.1,4.2-34.2,6.3-51.4
		C276.7,210.2,278.1,198.3,279.6,185.8z"/>
	<path fill="#FFFFFF" d="M490.2,217.9c-10.4-6.2-26.6-3.1-34.6,6.1c-7.2,8.2-10.4,18.2-12.2,28.7c-1.7,9.6-2.8,19.3-4.1,29
		c0,0.3,0.1,0.6,0.2,1.4c11.8,0,23.7,0,35.8,0c-0.6,4.9-1.1,9.3-1.6,14c-12.1,0-24.1,0-36.4,0c-0.9,7.2-1.8,14.2-2.7,21.2
		c-1.7,14-3.4,28-5.1,42c-1.6,13.4-3.2,26.9-4.9,40.3c-2.6,20.7-4,41.5-10.1,61.6c-5.2,17.3-13,33.3-26.4,45.9
		c-11.8,11.1-25.9,17.2-41.8,19.4c-10.9,1.5-21.7,1.7-32.4-0.8c-12.9-2.9-23.8-8.7-29-21.8c-4.9-12.4-2.5-29.4,8.6-38.4
		c10.4-8.4,34.3-9.1,40.5,8.2c5.1,14.1-1.5,30.6-18.4,35.4c-1.1,0.3-2.1,0.6-3.3,0.9c4.9,4.4,18.3,5.1,26.2,0.1
		c7.5-4.8,12.2-11.8,14.5-20.1c2.6-9.7,4.6-19.6,6-29.6c2.3-15.7,4-31.5,5.9-47.2c1.9-15.4,3.7-30.8,5.6-46.3
		c2.1-17.2,4.3-34.4,6.4-51.5c0.8-6.3,1.5-12.5,2.3-19.2c-7.4,0-14.6,0-22.3,0c0.6-4.8,1.2-9.3,1.8-14c7.4,0,14.7,0,22.1,0
		c1.3-5.9,2.2-11.5,3.7-17c9-32.2,29-53.8,61.8-62.5c14.2-3.8,28.8-4.4,43.2-0.9c13.7,3.3,25.1,10.2,28.7,25
		c3.1,13,1.4,25.2-9.4,34.7c-8.1,7.1-23.2,8.1-32.2,2.4c-8.2-5.3-11.7-15.4-9.1-26.2c2.6-10.5,9.2-16.9,19.5-19.7
		C487.8,218.6,488.7,218.4,490.2,217.9z"/>
	<g>
		<path fill="#FFFFFF" d="M172.4,210.2c-6.9,0-13.7,0-20.6,0c0.4-4,0.8-7.8,1.2-11.5c0.2-2,1.5-2,2.9-2c7.1-0.1,14.2,0,21.3-0.5
			c14-0.9,28.1-2.3,42.1-3.1c3.3-0.2,6.7,1.5,9.9,2.5c0.4,0.1,0.6,1.4,0.5,2.2c-3.1,24.7-6.2,49.4-9.3,74
			c-2.2,17.2-4.3,34.4-6.3,51.7c-0.3,2.6-0.1,5.3,0.5,7.9c1.1,4.9,6.5,6.4,9.7,2.4c2.5-3,4.3-6.8,5.4-10.5
			c1.7-5.6,2.6-11.5,3.9-17.6c4.4,0,9.1,0,14.3,0c-0.7,4-1.1,7.9-2.2,11.6c-1.9,6.5-3.7,13-6.5,19.2c-5.5,12.4-16.2,17.9-29.1,19.5
			c-8.3,1-16.5,0.7-24.6-1.4c-14.4-3.7-22.8-14.3-24.5-29.3c-1.3-11.4,0.3-22.6,1.6-33.9c1.5-13.2,3.2-26.5,4.8-39.7
			c1.6-13.2,3.2-26.5,4.8-39.7C172.4,211.5,172.4,211,172.4,210.2z"/>
		<path fill="#FFFFFF" d="M207.5,118.5c9.4,0,17.3,2.2,23.5,9c8.4,9.4,8.2,26.3,0.2,36.1c-11.1,13.4-32.7,15-44.7,8.6
			c-9.8-5.2-13.8-14.6-13.4-24.7C173.6,129.6,189.5,118,207.5,118.5z"/>
	</g>
</g>
</svg>
